<svg height="512pt" viewBox="-7 0 512 512" width="512pt" xmlns="http://www.w3.org/2000/svg"><path d="m34.925781 27.167969c-30.984375 16.480469-42.742187 54.960937-26.257812 85.949219l113.261719 212.929687c16.480468 30.984375 54.960937 42.742187 85.949218 26.261719 30.984375-16.484375 42.742188-54.964844 26.261719-85.949219l-113.261719-212.929687c-16.484375-30.988282-54.964844-42.746094-85.953125-26.261719zm0 0" fill="#eab875"/><path d="m234.140625 266.355469-113.261719-212.925781c-16.484375-30.988282-54.964844-42.746094-85.953125-26.261719-1.671875.890625-3.277343 1.855469-4.835937 2.867187 25.34375-10.257812 56.96875 3.773438 72.558594 33.089844l113.265624 212.925781c15.59375 29.316407 9.550782 63.382813-13.117187 78.664063 1.710937-.726563 3.410156-1.519532 5.082031-2.410156 30.984375-16.480469 42.742188-54.960938 26.261719-85.949219zm0 0" fill="#c68d4e"/><path d="m115.730469 192.753906c-5.078125-9.546875-28.398438-7.070312-52.085938 5.527344-2.578125 1.371094-5.042969 2.808594-7.398437 4.285156l18.101562 34.027344c2.542969-1.128906 5.109375-2.371094 7.6875-3.738281 23.6875-12.601563 38.773438-30.554688 33.695313-40.101563zm0 0" fill="#fff7af"/><path d="m151.757812 260.484375c-5.078124-9.546875-28.398437-7.070313-52.085937 5.53125-2.574219 1.367187-5.039063 2.804687-7.398437 4.28125l18.101562 34.027344c2.542969-1.125 5.109375-2.367188 7.6875-3.738281 23.6875-12.601563 38.773438-30.554688 33.695312-40.101563zm0 0" fill="#fff7af"/><path d="m27.617188 130.550781c-2.578126 1.371094-5.042969 2.804688-7.398438 4.285157l18.101562 34.027343c2.542969-1.128906 5.109376-2.371093 7.683594-3.742187 23.6875-12.597656 38.777344-30.550782 33.699219-40.097656-5.078125-9.546876-28.398437-7.074219-52.085937 5.527343zm0 0" fill="#fff7af"/><path d="m246.503906 19.226562v42.992188c0 1.273438 1.03125 2.304688 2.304688 2.304688h63.199218c1.273438 0 2.304688-1.03125 2.304688-2.304688v-42.992188c0-10.617187-8.609375-19.226562-19.226562-19.226562h-29.355469c-10.617188 0-19.226563 8.609375-19.226563 19.226562zm0 0" fill="#ed5176"/><path d="m295.085938 0h-16.878907c8.679688 0 15.714844 8.609375 15.714844 19.226562v42.992188c0 1.273438-.84375 2.304688-1.882813 2.304688h19.96875c1.273438 0 2.300782-1.03125 2.300782-2.304688v-42.992188c.003906-10.617187-8.605469-19.226562-19.222656-19.226562zm0 0" fill="#ba365f"/><path d="m308.722656 91.691406v-27.167968h-56.628906v27.167968c0 6.808594-3.4375 13.167969-9.160156 16.863282-9.832032 6.347656-24.597656 16.773437-28.722656 24.523437-18.535157 34.839844-9.214844 157.851563-9.214844 157.851563h150.820312s9.320313-123.011719-9.214844-157.851563c-4.125-7.75-18.890624-18.175781-28.722656-24.523437-5.71875-3.695313-9.15625-10.054688-9.15625-16.863282zm0 0" fill="#804c68"/><path d="m346.601562 133.078125c-4.121093-7.746094-18.890624-18.171875-28.722656-24.523437-5.71875-3.691407-9.15625-10.054688-9.15625-16.863282v-27.167968h-19.371094v27.167968c0 6.808594 2.8125 13.167969 7.488282 16.863282 8.035156 6.347656 20.105468 16.773437 23.476562 24.523437 15.148438 34.839844 7.53125 157.851563 7.53125 157.851563h27.972656s9.316407-123.011719-9.21875-157.851563zm0 0" fill="#60364e"/><path d="m394.203125 178.316406h-94.421875l-28.363281 35.648438v167.265625h151.144531v-167.265625zm0 0" fill="#e9e9ea"/><path d="m394.203125 178.316406h-18.832031l24.011718 35.648438v167.265625h23.179688v-167.265625zm0 0" fill="#c5c4cc"/><path d="m308.894531 138.34375h76.191407c5.035156 0 9.117187 4.078125 9.117187 9.113281v30.859375h-94.421875v-30.859375c0-5.035156 4.078125-9.113281 9.113281-9.113281zm0 0" fill="#c8e7f7"/><path d="m385.085938 138.34375h-18.101563c4.632813 0 8.386719 3.753906 8.386719 8.386719v31.585937h18.832031v-30.859375c0-5.03125-4.082031-9.113281-9.117187-9.113281zm0 0" fill="#8cbcd6"/><path d="m203.4375 209.363281c.019531-.015625.035156-.027343.054688-.042969 13.679687-11.019531 13.738281-11.070312 46.09375-37.132812 1.1875-.949219 2.292968-2.03125 3.289062-3.253906 7.601562-9.316406 6.210938-23.027344-3.105469-30.628906-9.316406-7.597657-23.027343-6.207032-30.628906 3.105468-.996094 1.222656-1.835937 2.523438-2.523437 3.875-19.039063 36.929688-19.078126 37-27.125 52.613282-.011719.019531-.023438.039062-.03125.058593-.003907.003907-.003907.007813-.007813.011719-1.957031 3.789062-1.070313 8.558594 2.367187 11.363281 3.4375 2.804688 8.285157 2.71875 11.605469.035157.003907 0 .007813 0 .011719-.003907zm0 0" fill="#7fab38"/><path d="m173.425781 209.363281c-.019531-.015625-.035156-.027343-.054687-.042969-13.679688-11.019531-13.742188-11.070312-46.097656-37.132812-1.183594-.949219-2.289063-2.03125-3.289063-3.253906-7.597656-9.316406-6.207031-23.027344 3.109375-30.628906 9.3125-7.597657 23.027344-6.207032 30.625 3.105468 1 1.222656 1.835938 2.523438 2.527344 3.875 19.039062 36.929688 19.078125 37 27.125 52.613282.011718.019531.019531.039062.03125.058593.003906.003907.003906.007813.003906.011719 1.960938 3.789062 1.074219 8.558594-2.363281 11.363281-3.4375 2.804688-8.289063 2.71875-11.609375.035157-.003906 0-.007813 0-.007813-.003907zm0 0" fill="#7fab38"/><path d="m202.304688 202.703125c.007812-.035156.015624-.070313.023437-.101563 5.585937-26.4375 5.613281-26.554687 18.828125-89.078124.492188-2.28125.753906-4.644532.753906-7.074219 0-18.492188-14.988281-33.480469-33.480468-33.480469-18.492188 0-33.480469 14.988281-33.480469 33.480469 0 2.429687.265625 4.792969.753906 7.074219 13.21875 62.523437 13.242187 62.640624 18.832031 89.078124.007813.03125.011719.066407.019532.101563.003906.003906.003906.011719.003906.015625h.003906c1.351562 6.421875 7.042969 11.246094 13.867188 11.246094 6.824218 0 12.519531-4.824219 13.871093-11.246094 0-.003906.003907-.011719.003907-.015625zm0 0" fill="#aed559"/><path d="m244.453125 257.628906c.839844-3.910156 1.296875-7.964844 1.296875-12.128906 0-31.65625-25.664062-57.320312-57.320312-57.320312s-57.320313 25.664062-57.320313 57.320312c0 4.164062.457031 8.21875 1.300781 12.128906 23.574219 110.3125 23.628906 110.574219 33.179688 155.257813 2.128906 10.667969 11.542968 18.710937 22.839844 18.710937 11.296874 0 20.714843-8.042968 22.84375-18.710937 9.546874-44.683594 9.605468-44.945313 33.179687-155.257813zm0 0" fill="#ffcd34"/><path d="m188.429688 188.179688c-2.320313 0-4.597657.15625-6.847657.421874 22.359375 3.386719 39.703125 27.558594 39.703125 56.898438 0 4.164062-.359375 8.21875-1.023437 12.128906-18.542969 110.3125-18.585938 110.574219-26.097657 155.253906-1.320312 8.417969-6.214843 15.179688-12.578124 17.671876 2.164062.664062 4.460937 1.042968 6.84375 1.042968 11.296874 0 20.714843-8.042968 22.84375-18.714844 9.546874-44.679687 9.605468-44.941406 33.179687-155.253906.84375-3.910156 1.296875-7.964844 1.296875-12.128906 0-31.65625-25.664062-57.320312-57.320312-57.320312zm0 0" fill="#e69012"/><path d="m51.300781 304.605469 4.265625 36.492187 3.191406 27.253906 14.007813 119.742188c1.59375 13.628906 13.140625 23.90625 26.863281 23.90625h298.808594c13.722656 0 25.269531-10.277344 26.863281-23.90625l21.464844-183.488281zm0 0" fill="#aed559"/><path d="m444.042969 327.898438 2.722656-23.292969h-395.464844l2.722657 23.292969zm0 0" fill="#7fab38"/><path d="m421.011719 304.605469-21.464844 183.488281c-1.59375 13.628906-13.140625 23.90625-26.863281 23.90625h25.753906c13.722656 0 25.269531-10.277344 26.863281-23.90625l21.464844-183.488281zm0 0" fill="#7fab38"/><path d="m23.285156 265.097656v25.21875c0 7.890625 6.398438 14.289063 14.289063 14.289063h422.917969c7.890624 0 14.289062-6.398438 14.289062-14.289063v-25.21875c0-7.894531-6.398438-14.292968-14.289062-14.292968h-422.917969c-7.890625 0-14.289063 6.398437-14.289063 14.292968zm0 0" fill="#90b6e1"/><path d="m460.492188 250.804688h-26.167969c7.890625 0 14.289062 6.398437 14.289062 14.292968v25.21875c0 7.890625-6.398437 14.289063-14.289062 14.289063h26.167969c7.890624 0 14.289062-6.398438 14.289062-14.289063v-25.21875c0-7.894531-6.398438-14.292968-14.289062-14.292968zm0 0" fill="#5692d8"/><path d="m485.550781 469.039062c-5.617187.792969-11.421875-1.757812-14.527343-6.925781l-102.539063-170.875c-4.136719-6.894531-1.902344-15.835937 4.988281-19.972656 6.898438-4.136719 15.835938-1.902344 19.976563 4.992187l102.539062 170.875c4.136719 6.890626 1.902344 15.835938-4.988281 19.972657-1.726562 1.035156-3.578125 1.667969-5.449219 1.933593zm0 0" fill="#575b7a"/><path d="m12.515625 469.039062c5.617187.792969 11.421875-1.757812 14.527344-6.925781l102.539062-170.875c4.136719-6.894531 1.902344-15.835937-4.988281-19.972656-6.894531-4.136719-15.835938-1.902344-19.972656 4.992187l-102.542969 170.875c-4.136719 6.894532-1.902344 15.835938 4.988281 19.972657 1.726563 1.035156 3.578125 1.667969 5.449219 1.933593zm0 0" fill="#575b7a"/><g fill="#7fab38"><path d="m161.507812 379.792969c0 7.128906-5.777343 12.910156-12.910156 12.910156-7.128906 0-12.90625-5.78125-12.90625-12.910156v-25.5625c0-7.128907 5.777344-12.910157 12.90625-12.910157s12.910156 5.78125 12.910156 12.910157zm0 0"/><path d="m211.726562 463.316406c0 7.128906-5.78125 12.910156-12.910156 12.910156s-12.910156-5.78125-12.910156-12.910156v-25.5625c0-7.128906 5.78125-12.910156 12.910156-12.910156s12.910156 5.78125 12.910156 12.910156zm0 0"/><path d="m261.941406 379.792969c0 7.128906-5.777344 12.910156-12.90625 12.910156s-12.910156-5.78125-12.910156-12.910156v-25.5625c0-7.128907 5.78125-12.910157 12.910156-12.910157s12.90625 5.78125 12.90625 12.910157zm0 0"/><path d="m312.160156 463.316406c0 7.128906-5.78125 12.910156-12.910156 12.910156s-12.910156-5.78125-12.910156-12.910156v-25.5625c0-7.128906 5.78125-12.910156 12.910156-12.910156s12.910156 5.78125 12.910156 12.910156zm0 0"/><path d="m362.375 379.792969c0 7.128906-5.777344 12.910156-12.910156 12.910156-7.128906 0-12.90625-5.78125-12.90625-12.910156v-25.5625c0-7.128907 5.777344-12.910157 12.90625-12.910157s12.910156 5.78125 12.910156 12.910157zm0 0"/></g><path d="m409.722656 221.464844h-38.1875c-4.144531 0-7.5-3.359375-7.5-7.5 0-4.144532 3.355469-7.5 7.5-7.5h38.1875c4.144532 0 7.5 3.355468 7.5 7.5 0 4.140625-3.355468 7.5-7.5 7.5zm0 0" fill="#c5c4cc"/></svg>