<svg height="464pt" viewBox="0 0 464 464" width="464pt" xmlns="http://www.w3.org/2000/svg"><path d="m368 144h96v320h-96zm0 0" fill="#dbad65"/><path d="m392 0c30.929688 0 56 25.070312 56 56v88h-112v-88c0-30.929688 25.070312-56 56-56zm0 0" fill="#ffaf83"/><path d="m365.46875 72.414062 48-16.015624 5.0625 15.171874-48 16.015626zm0 0" fill="#ffc7ab"/><path d="m365.476562 112.414062 47.996094-16.015624 5.0625 15.167968-48 16.019532zm0 0" fill="#ffc7ab"/><path d="m208 0h96v48h-96zm0 0" fill="#aabece"/><path d="m232 0h16v24h-16zm0 0" fill="#394d5c"/><path d="m264 0h16v24h-16zm0 0" fill="#394d5c"/><path d="m320 144c-6.128906-7.441406-11.488281-15.480469-16-24-7.808594-18.839844-16-72-16-72h-64s-8.191406 53.160156-16 72c-4.511719 8.519531-9.871094 16.558594-16 24zm0 0" fill="#87cee9"/><path d="m128 144h240v320h-240zm0 0" fill="#ffd782"/><g fill="#dbad65"><path d="m288 168h80v16h-80zm0 0"/><path d="m328 200h40v16h-40zm0 0"/><path d="m232 184h16v16h-16zm0 0"/></g><path d="m160 288h-160l32-48h152zm0 0" fill="#a9d39f"/><path d="m208 288h-48l24-48zm0 0" fill="#86b279"/><path d="m32 208h152v32h-152zm0 0" fill="#bfe8b5"/><path d="m0 288h160v176h-160zm0 0" fill="#d7ebf2"/><path d="m160.0625 400c-13.359375 0-13.359375 16-26.71875 16s-13.34375-16-26.710938-16c-13.367187 0-13.335937 16-26.632812 16s-13.335938-16-26.664062-16c-13.328126 0-13.335938 16-26.703126 16-13.367187 0-13.3125-16-26.632812-16v64h160.0625zm0 0" fill="#87cee9"/><path d="m160 288h48v176h-48zm0 0" fill="#a9d39f"/><path d="m128 336c0-17.671875-21.492188-32-48-32s-48 14.328125-48 32 21.492188 32 48 32 48-14.328125 48-32zm0 0" fill="#f98c96"/><path d="m304 320h-16c0-22.136719 11.703125-64 56-64v16c-39.328125 0-40 46.039062-40 48zm0 0" fill="#995f5b"/><path d="m232 256h16c26.507812 0 48 21.492188 48 48h-16c-26.507812 0-48-21.492188-48-48zm0 0" fill="#55b56a"/><path d="m464 449.601562v14.398438h-9.601562l-38.398438-57.601562-38.398438 57.601562h-9.601562v-14.398438l40-60v-245.601562h16v245.601562zm0 0" fill="#bc863f"/><path d="m368 384c0 44.183594-35.816406 80-80 80s-80-35.816406-80-80 35.816406-80 80-80 80 35.816406 80 80zm0 0" fill="#e97424"/><path d="m296 440c-48.167969 0-62.921875-36.34375-64-55.550781l16-.929688c.265625 4.144531 3.886719 40.480469 48 40.480469zm0 0" fill="#efa573"/><path d="m240 352h16v16h-16zm0 0" fill="#efa573"/><path d="m264 328h16v16h-16zm0 0" fill="#efa573"/></svg>