<svg height="367pt" viewBox="0 -13 367.45117 367" width="367pt" xmlns="http://www.w3.org/2000/svg"><path d="m178.75 299.484375c-9.382812 7.996094-20.203125 14.136719-31.878906 18.089844-11.609375 3.527343-23.683594 5.277343-35.816406 5.1875-12.152344.085937-24.246094-1.664063-35.878907-5.1875-31.46875-10.4375-54.878906-37.574219-66.417969-67.683594-18.9375-50.179687-6.589843-106.804687 31.519532-144.539063 11.761718-10.925781 25.804687-19.09375 41.117187-23.910156l64.140625 1.515625c13.46875 4.941407 25.800782 12.558594 36.246094 22.394531 12.277344 11.820313 22.003906 26.027344 28.59375 41.746094zm0 0" fill="#802d40"/><path d="m367 237.429688c0 57.640624-46.730469 104.371093-104.371094 104.371093-57.644531 0-104.371094-46.730469-104.371094-104.371093 0-57.644532 46.726563-104.371094 104.371094-104.371094 57.640625 0 104.371094 46.726562 104.371094 104.371094zm0 0" fill="#d75e72"/><path d="m354.347656 237.429688c0 50.65625-41.0625 91.71875-91.71875 91.71875s-91.722656-41.0625-91.722656-91.71875 41.066406-91.722657 91.722656-91.722657 91.71875 41.066407 91.71875 91.722657zm0 0" fill="#f5efca"/><path d="m262.628906 316.5c-43.667968 0-79.070312-35.402344-79.070312-79.070312 0-43.671876 35.402344-79.070313 79.070312-79.070313 43.667969 0 79.070313 35.398437 79.070313 79.070313-.050781 43.648437-35.421875 79.019531-79.070313 79.070312zm0 0" fill="#f3d55b"/><g fill="#527f72"><path d="m246.816406 202.640625c0 3.492187-2.832031 6.324219-6.328125 6.324219-3.492187 0-6.324219-2.832032-6.324219-6.324219 0-3.496094 2.832032-6.328125 6.324219-6.328125 3.496094 0 6.328125 2.832031 6.328125 6.328125zm0 0"/><path d="m259.464844 183.660156c0 3.496094-2.832032 6.328125-6.324219 6.328125s-6.324219-2.832031-6.324219-6.328125c0-3.492187 2.832032-6.324218 6.324219-6.324218s6.324219 2.832031 6.324219 6.324218zm0 0"/><path d="m234.164062 189.988281c0 3.492188-2.832031 6.324219-6.324218 6.324219-3.496094 0-6.328125-2.832031-6.328125-6.324219 0-3.496093 2.832031-6.328125 6.328125-6.328125 3.492187 0 6.324218 2.832032 6.324218 6.328125zm0 0"/><path d="m227.839844 208.964844c0 3.492187-2.832032 6.324218-6.328125 6.324218-3.492188 0-6.324219-2.832031-6.324219-6.324218 0-3.496094 2.832031-6.324219 6.324219-6.324219 3.496093 0 6.328125 2.828125 6.328125 6.324219zm0 0"/><path d="m215.1875 227.941406c0 3.492188-2.832031 6.324219-6.324219 6.324219-3.496093 0-6.328125-2.832031-6.328125-6.324219 0-3.492187 2.832032-6.324218 6.328125-6.324218 3.492188 0 6.324219 2.832031 6.324219 6.324218zm0 0"/><path d="m227.839844 246.917969c0 3.492187-2.832032 6.324219-6.328125 6.324219-3.492188 0-6.324219-2.832032-6.324219-6.324219 0-3.492188 2.832031-6.324219 6.324219-6.324219 3.496093 0 6.328125 2.832031 6.328125 6.324219zm0 0"/><path d="m208.863281 253.242188c0 3.492187-2.832031 6.324218-6.328125 6.324218-3.492187 0-6.324218-2.832031-6.324218-6.324218 0-3.492188 2.832031-6.324219 6.324218-6.324219 3.496094 0 6.328125 2.832031 6.328125 6.324219zm0 0"/><path d="m227.839844 265.894531c0 3.492188-2.832032 6.324219-6.328125 6.324219-3.492188 0-6.324219-2.832031-6.324219-6.324219 0-3.492187 2.832031-6.324219 6.324219-6.324219 3.496093 0 6.328125 2.832032 6.328125 6.324219zm0 0"/><path d="m246.816406 291.195312c0 3.492188-2.832031 6.324219-6.328125 6.324219-3.492187 0-6.324219-2.832031-6.324219-6.324219 0-3.492187 2.832032-6.324218 6.324219-6.324218 3.496094 0 6.328125 2.832031 6.328125 6.324218zm0 0"/><path d="m265.792969 278.546875c0 3.492187-2.832031 6.324219-6.328125 6.324219-3.492188 0-6.324219-2.832032-6.324219-6.324219 0-3.496094 2.832031-6.328125 6.324219-6.328125 3.496094 0 6.328125 2.832031 6.328125 6.328125zm0 0"/><path d="m272.117188 297.523438c0 3.492187-2.832032 6.324218-6.324219 6.324218-3.496094 0-6.328125-2.832031-6.328125-6.324218 0-3.496094 2.832031-6.328126 6.328125-6.328126 3.492187 0 6.324219 2.832032 6.324219 6.328126zm0 0"/><path d="m284.769531 284.871094c0 3.492187-2.832031 6.324218-6.328125 6.324218-3.492187 0-6.324218-2.832031-6.324218-6.324218 0-3.492188 2.832031-6.324219 6.324218-6.324219 3.496094 0 6.328125 2.832031 6.328125 6.324219zm0 0"/><path d="m310.070312 278.546875c0 3.492187-2.832031 6.324219-6.324218 6.324219-3.496094 0-6.328125-2.832032-6.328125-6.324219 0-3.496094 2.832031-6.328125 6.328125-6.328125 3.492187 0 6.324218 2.832031 6.324218 6.328125zm0 0"/><path d="m303.746094 259.570312c0 3.492188-2.832032 6.324219-6.328125 6.324219-3.492188 0-6.324219-2.832031-6.324219-6.324219 0-3.496093 2.832031-6.328124 6.324219-6.328124 3.496093 0 6.328125 2.832031 6.328125 6.328124zm0 0"/><path d="m322.722656 240.59375c0 3.492188-2.832031 6.324219-6.328125 6.324219-3.492187 0-6.324219-2.832031-6.324219-6.324219 0-3.496094 2.832032-6.328125 6.324219-6.328125 3.496094 0 6.328125 2.832031 6.328125 6.328125zm0 0"/><path d="m322.722656 259.570312c0 3.492188-2.832031 6.324219-6.328125 6.324219-3.492187 0-6.324219-2.832031-6.324219-6.324219 0-3.496093 2.832032-6.328124 6.324219-6.328124 3.496094 0 6.328125 2.832031 6.328125 6.328124zm0 0"/><path d="m316.394531 208.964844c0 3.492187-2.832031 6.324218-6.324219 6.324218-3.492187 0-6.324218-2.832031-6.324218-6.324218 0-3.496094 2.832031-6.324219 6.324218-6.324219 3.492188 0 6.324219 2.828125 6.324219 6.324219zm0 0"/><path d="m297.417969 208.964844c0 3.492187-2.832031 6.324218-6.324219 6.324218s-6.324219-2.832031-6.324219-6.324218c0-3.496094 2.832031-6.324219 6.324219-6.324219s6.324219 2.828125 6.324219 6.324219zm0 0"/><path d="m284.769531 189.988281c0 3.492188-2.832031 6.324219-6.328125 6.324219-3.492187 0-6.324218-2.832031-6.324218-6.324219 0-3.496093 2.832031-6.328125 6.324218-6.328125 3.496094 0 6.328125 2.832032 6.328125 6.328125zm0 0"/><path d="m303.746094 189.988281c0 3.492188-2.832032 6.324219-6.328125 6.324219-3.492188 0-6.324219-2.832031-6.324219-6.324219 0-3.496093 2.832031-6.328125 6.324219-6.328125 3.496093 0 6.328125 2.832032 6.328125 6.328125zm0 0"/></g><path d="m50.722656 278.546875c-1.917968-.003906-3.730468-.878906-4.929687-2.375-1.097657-1.371094-26.863281-34.347656-20.320313-93.207031 1.59375-19.617188 8.867188-38.347656 20.929688-53.898438 2.207031-2.707031 6.191406-3.113281 8.898437-.90625 2.710938 2.210938 3.113281 6.195313.90625 8.902344-10.507812 13.675781-16.816406 30.113281-18.160156 47.308594-5.925781 53.347656 17.40625 83.625 17.640625 83.921875 1.507812 1.902343 1.792969 4.5.738281 6.683593-1.0625 2.183594-3.277343 3.570313-5.703125 3.570313zm0 0" fill="#d75e72"/><path d="m70.464844 123c-2.890625 0-5.414063-1.957031-6.128906-4.753906-.71875-2.800782.550781-5.730469 3.085937-7.121094 2.101563-1.179688 4.289063-2.191406 6.546875-3.027344 2.136719-.738281 4.503906-.28125 6.214844 1.199219 1.703125 1.480469 2.492187 3.761719 2.0625 5.980469-.429688 2.21875-2.007813 4.042968-4.144532 4.78125-1.585937.609375-3.125 1.332031-4.605468 2.160156-.929688.511719-1.972656.78125-3.03125.78125zm0 0" fill="#d75e72"/><path d="m101.328125 76.128906s-11.640625-45.488281 15.324219-74.128906c2.027344-2.152344 5.363281-2.394531 7.679687-.558594l8.738281 6.503906c3.03125 2.457032 3.707032 6.808594 1.558594 10.070313-5.160156 7.820313-12.226562 25.082031-8 58.113281zm0 0" fill="#cb9080"/><path d="m145.605469 82.453125c0-6.988281-14.160157-12.652344-31.628907-12.652344-17.464843 0-31.625 5.664063-31.625 12.652344s14.160157 12.652344 31.625 12.652344c17.46875 0 31.628907-5.664063 31.628907-12.652344zm0 0" fill="#af8066"/></svg>